<?xml version="1.0" encoding="UTF-8" standalone="no"?>
<svg
   width="195.74171"
   height="124.598"
   viewBox="0 0 195.74171 124.598"
   fill="none"
   version="1.1"
   id="svg12"
   sodipodi:docname="logo.svg"
   inkscape:version="1.3.2 (091e20e, 2023-11-25)"
   xmlns:inkscape="http://www.inkscape.org/namespaces/inkscape"
   xmlns:sodipodi="http://sodipodi.sourceforge.net/DTD/sodipodi-0.dtd"
   xmlns="http://www.w3.org/2000/svg"
   xmlns:svg="http://www.w3.org/2000/svg">
  <defs
     id="defs12" />
  <sodipodi:namedview
     id="namedview12"
     pagecolor="#ffffff"
     bordercolor="#000000"
     borderopacity="0.25"
     inkscape:showpageshadow="2"
     inkscape:pageopacity="0.0"
     inkscape:pagecheckerboard="0"
     inkscape:deskcolor="#d1d1d1"
     inkscape:zoom="2.7978523"
     inkscape:cx="87.924584"
     inkscape:cy="56.829304"
     inkscape:window-width="1304"
     inkscape:window-height="861"
     inkscape:window-x="0"
     inkscape:window-y="37"
     inkscape:window-maximized="0"
     inkscape:current-layer="svg12" />
  <path
     d="m 20.378125,61.128595 v 8.7685 c 0,0.786 0.6345,1.4204 1.4204,1.4204 h 7.3482 c 0.7859,0 1.4203,-0.6344 1.4203,-1.4204 v -7.3481 c 0,-0.786 -0.6344,-1.4204 -1.4203,-1.4204 z"
     fill="#d4d2e3"
     id="path1" />
  <path
     d="M 20.377825,40.750795 H 1.420385 C 0.634439,40.750795 0,41.385195 0,42.171195 v 17.537 c 0,0.7859 0.634439,1.4204 1.420385,1.4204 h 18.95744 z"
     fill="#e61e25"
     id="path2" />
  <path
     d="m 20.378125,1.420385 v 39.33041 h 39.3305 c 0.7859,0 1.4204,-0.6344 1.4204,-1.4204 V 1.420385 C 61.129025,0.634435 60.494525,0 59.708625,0 h -37.9101 c -0.7859,0 -1.4204,0.634435 -1.4204,1.420385 z"
     fill="#d4d2e3"
     id="path3" />
  <path
     d="m 63.624164,85.0681 h -7.666008 l -7.242832,-9.700512 -1.464842,1.774087 V 85.0681 H 41.000488 V 60.833097 h 6.249994 v 10.970042 l 8.658846,-10.970042 h 7.242831 L 53.679512,72.047279 Z M 84.376097,77.011467 H 70.964651 q 0.130208,2.148435 1.627603,3.287757 1.51367,1.139322 4.443355,1.139322 1.855467,0 3.597002,-0.667317 1.741534,-0.667317 2.750648,-1.43229 H 84.0343 v 4.703771 q -1.985675,0.797526 -3.743486,1.155598 -1.757811,0.358073 -3.88997,0.358073 -5.501297,0 -8.430982,-2.473956 -2.929684,-2.473956 -2.929684,-7.04752 0,-4.524735 2.766924,-7.161451 2.7832,-2.652992 7.61718,-2.652992 4.459631,0 6.705723,2.262367 2.246092,2.246092 2.246092,6.477859 z m -5.826818,-3.434241 q -0.04883,-1.839191 -0.911457,-2.766925 -0.86263,-0.927733 -2.685545,-0.927733 -1.692706,0 -2.7832,0.878905 -1.090494,0.878905 -1.220702,2.815753 z M 104.28168,85.0681 H 87.110469 v -3.759762 l 9.635407,-10.237621 h -9.244783 v -4.280594 h 16.601547 v 3.694658 l -9.488923,10.221344 h 9.667963 z m 21.89125,0 h -5.85937 v -1.904295 q -1.51367,1.236978 -2.83203,1.822915 -1.31836,0.585937 -3.04362,0.585937 -3.33658,0 -5.33853,-2.571612 -2.00195,-2.571612 -2.00195,-6.933587 0,-2.327472 0.66731,-4.117835 0.6836,-1.806639 1.85547,-3.092445 1.10677,-1.220702 2.68554,-1.888019 1.57878,-0.683593 3.15755,-0.683593 1.64388,0 2.68555,0.358072 1.05794,0.341797 2.16471,0.878906 v -7.779941 h 5.85937 z m -5.85937,-5.045568 v -8.968091 q -0.61849,-0.260416 -1.30208,-0.374348 -0.6836,-0.113932 -1.25326,-0.113932 -2.31119,0 -3.46679,1.448566 -1.1556,1.43229 -1.1556,3.987626 0,2.685545 0.92774,3.906247 0.92773,1.204426 2.97851,1.204426 0.79752,0 1.6927,-0.292969 0.89519,-0.309244 1.57878,-0.797525 z m 17.25259,5.045568 h -5.85937 V 66.790123 h 5.85937 z m 0.16276,-20.882142 h -6.18489 v -4.443355 h 6.18489 z"
     id="text12"
     style="font-weight:bold;font-size:33.3333px;-inkscape-font-specification:'sans-serif, Bold';fill:#000000"
     aria-label="Kezdi" />
  <path
     d="m 149.38684,84.870155 h -6.08724 v -6.396478 h 6.08724 z m 13.65558,0.325521 q 0,3.092445 -1.90429,4.817704 -1.9043,1.741534 -4.89909,1.741534 -1.59505,0 -2.9134,-0.146484 -1.30209,-0.130208 -1.9043,-0.276692 v -4.199215 h 0.45573 q 0.48828,0.16276 1.2207,0.276692 0.73242,0.113933 1.1556,0.113933 1.69271,0 2.31119,-1.009114 0.61849,-1.009114 0.61849,-3.320309 V 70.563528 h -3.46679 v -3.97135 h 9.32616 z m 0,-21.207662 h -6.23372 v -4.443355 h 6.23372 z m 11.37695,20.882141 H 168.56 V 59.544659 h 5.85937 z"
     id="text12-5"
     style="font-weight:bold;font-size:33.3333px;-inkscape-font-specification:'sans-serif, Bold';fill:#e61e25"
     aria-label=".jl" />
  <g
     id="text1"
     style="font-size:13.1383px;font-family:JuliaMono;-inkscape-font-specification:'JuliaMono, Normal';fill:#000000;stroke-width:0.985373"
     transform="scale(0.98537293,1.0148442)"
     aria-label="@replace ext = &quot;.jl&quot; &#10;    @if ext == &quot;.do&quot;">
    <path
       d="m 45.441536,106.35262 q -1.583166,0 -2.450293,-0.65034 -0.860559,-0.65035 -1.208724,-1.98389 -0.341596,-1.33353 -0.341596,-3.58675 0,-2.226945 0.328458,-3.586759 0.328457,-1.366383 1.143032,-2.043006 0.814574,-0.683191 2.266357,-0.683191 1.07734,0 1.721117,0.38101 0.650346,0.381011 0.939388,1.175878 0.295612,0.788298 0.295612,2.069282 v 4.808616 q 0,0.30875 0.06569,0.84085 0.06569,0.52554 0.131383,0.80144 h -1.037925 l -0.131383,-0.72261 q -0.131383,0.35474 -0.558378,0.57809 -0.420426,0.22335 -0.913112,0.22335 -0.716037,0 -1.182447,-0.50583 -0.45984,-0.51239 -0.676622,-1.34667 -0.210213,-0.83428 -0.210213,-1.83279 0,-1.537185 0.499255,-2.443728 0.505825,-0.913111 1.537181,-0.913111 0.440134,0 0.821144,0.137952 0.381011,0.131383 0.6175,0.38101 V 97.09012 q 0,-0.446702 -0.09854,-0.913112 -0.09854,-0.472978 -0.518963,-0.886835 -0.413856,-0.413856 -1.261277,-0.413856 -0.978803,0 -1.550319,0.637207 -0.564947,0.637208 -0.801436,1.865639 -0.23649,1.221862 -0.23649,3.120347 0,1.97074 0.282474,2.95612 0.289042,0.98537 1.018218,1.37295 0.729176,0.39415 2.194096,0.39415 h 2.233511 v 1.12989 z m 0.518962,-3.2583 q 0.400719,0 0.656915,-0.22335 0.256197,-0.22335 0.367873,-0.5321 0.111675,-0.30875 0.111675,-0.58465 v -2.765615 q 0,-0.597793 -0.295611,-0.919681 -0.295612,-0.321889 -0.821144,-0.321889 -0.433564,0 -0.702899,0.249628 -0.262766,0.249628 -0.38758,0.814575 -0.124814,0.558377 -0.124814,1.517472 0,1.02479 0.137952,1.63572 0.137952,0.60436 0.400718,0.86713 0.262766,0.26276 0.656915,0.26276 z m 5.288171,-2.96925 q 0,-1.136465 -0.03941,-1.609444 -0.03285,-0.472979 -0.105106,-0.886835 h -1.287553 v -0.959096 h 2.141542 l 0.105107,1.300691 q 0.302181,-0.722606 0.853989,-1.07734 0.558378,-0.354734 1.156171,-0.354734 0.466409,0 0.978803,0.203643 0.518963,0.203644 0.821144,0.492687 l -0.604362,0.801436 q -0.183936,-0.197075 -0.558378,-0.367873 -0.367872,-0.170797 -0.821143,-0.170797 -0.558378,0 -0.893405,0.348164 -0.335027,0.348165 -0.492686,1.070772 -0.151091,0.716037 -0.151091,1.865636 v 3.11378 h -1.103617 z m 9.689502,3.8758 q -0.952527,0 -1.688272,-0.45984 -0.735745,-0.45985 -1.143032,-1.29413 -0.400718,-0.83428 -0.400718,-1.91162 0,-1.097048 0.407287,-1.957606 0.413857,-0.867128 1.129894,-1.353245 0.716037,-0.486117 1.589734,-0.486117 0.840851,0 1.478059,0.466409 0.637207,0.459841 0.991942,1.372953 0.354734,0.913111 0.354734,2.220376 h -4.79548 q 0,1.16274 0.525532,1.76053 0.532101,0.59122 1.537181,0.59122 0.656915,0 1.215293,-0.21678 0.558378,-0.21678 0.873697,-0.46641 l 0.551809,0.86713 q -0.249628,0.21678 -0.670054,0.42042 -0.420425,0.19708 -0.939388,0.32189 -0.512394,0.12482 -1.018218,0.12482 z m 1.668564,-4.401334 q 0,-0.597793 -0.23649,-1.057634 -0.22992,-0.45984 -0.643776,-0.709468 -0.407288,-0.256197 -0.919681,-0.256197 -0.518963,0 -0.959096,0.256197 -0.440133,0.249628 -0.702899,0.716038 -0.256197,0.45984 -0.256197,1.051064 z m 3.074368,-1.326969 q 0,-0.716037 -0.04598,-1.471489 l -0.0066,-0.131383 h 1.064202 l 0.05255,1.195585 q 0.367873,-0.650346 0.899974,-0.985373 0.532101,-0.341595 1.215293,-0.341595 0.906542,0 1.504335,0.558377 0.604362,0.551809 0.880266,1.412368 0.282473,0.853989 0.282473,1.767103 0,0.94596 -0.30218,1.79338 -0.302181,0.84085 -0.952527,1.37295 -0.643777,0.5321 -1.629149,0.5321 -0.62407,0 -1.064203,-0.23649 -0.433564,-0.23649 -0.794867,-0.73574 v 3.38968 h -1.103617 z m 2.896995,4.795483 q 0.604362,0 1.018218,-0.37444 0.413857,-0.38102 0.6175,-0.99852 0.210213,-0.6175 0.210213,-1.32696 0,-0.656919 -0.177367,-1.320403 -0.170798,-0.663484 -0.564947,-1.110186 -0.394149,-0.453272 -1.011649,-0.453272 -0.6175,0 -1.051064,0.459841 -0.433564,0.453271 -0.650346,1.136463 -0.210212,0.676622 -0.210212,1.340107 0,0.59779 0.177367,1.20872 0.183936,0.61093 0.591223,1.02479 0.413857,0.41386 1.051064,0.41386 z m 9.216522,0.98537 q -0.814575,0 -1.320399,-0.24306 -0.505825,-0.24306 -0.748884,-0.74888 -0.243058,-0.5124 -0.243058,-1.34011 v -7.265479 h -2.299203 v -0.939388 h 3.40282 v 8.007797 q 0,0.78829 0.348165,1.1496 0.354734,0.35473 0.906543,0.35473 0.354734,0 0.656915,-0.17737 0.302181,-0.18393 0.670053,-0.54523 l 0.656915,0.75545 q -0.906543,0.99194 -2.029867,0.99194 z m 5.813702,-0.0263 q -1.064203,0 -1.681703,-0.50582 -0.6175,-0.5124 -0.6175,-1.48463 0,-1.41894 1.16274,-1.9379 1.162739,-0.525531 2.765612,-0.525531 h 0.762021 v -0.354734 q 0,-0.407287 -0.0854,-0.768591 -0.0854,-0.361303 -0.440133,-0.663484 -0.354734,-0.302181 -1.090479,-0.302181 -0.394149,0 -0.722606,0.09197 -0.321889,0.0854 -0.571516,0.216782 -0.243059,0.131383 -0.578085,0.341596 l -0.269336,0.164229 -0.512393,-0.801436 q 0.446702,-0.289043 0.76859,-0.459841 0.321889,-0.177367 0.834282,-0.321888 0.518963,-0.151091 1.16274,-0.151091 1.169309,0 1.740825,0.472979 0.571516,0.46641 0.702899,1.00508 0.137952,0.53867 0.137952,1.08391 v 2.732763 q 0,0.93282 0.118245,2.03644 h -1.051064 q -0.01314,-0.15109 -0.02628,-0.44013 l -0.03942,-0.54524 q -0.348165,0.58465 -1.031357,0.85399 -0.676622,0.26276 -1.438643,0.26276 z m 0.262766,-0.86713 q 1.116755,0 1.62258,-0.7226 0.505824,-0.72918 0.505824,-1.95761 -0.433564,-0.0263 -0.564947,-0.0263 -1.07734,0 -1.734255,0.15766 -0.656915,0.1511 -0.965665,0.47955 -0.30875,0.32846 -0.30875,0.85399 0,0.62407 0.38101,0.91968 0.381011,0.29561 1.064203,0.29561 z m 8.736977,0.80144 q -0.978803,0 -1.734255,-0.43356 -0.748884,-0.43357 -1.169309,-1.26128 -0.420426,-0.83428 -0.420426,-1.97074 0,-1.129898 0.440133,-1.97075 0.440133,-0.840851 1.215293,-1.294122 0.781729,-0.453271 1.773671,-0.453271 0.729175,0 1.320399,0.30875 0.591223,0.30218 0.913111,0.729175 l -0.696329,0.735745 q -0.31532,-0.341596 -0.663485,-0.545239 -0.348164,-0.203644 -0.860558,-0.203644 -0.670053,0 -1.195585,0.341596 -0.518963,0.335026 -0.814575,0.939388 -0.289043,0.597793 -0.289043,1.372952 0,0.76202 0.275905,1.37952 0.275904,0.61093 0.775159,0.96567 0.499256,0.34816 1.143032,0.34816 0.518963,0 0.945958,-0.26276 0.426995,-0.26934 0.801436,-0.6832 l 0.670054,0.74889 q -0.302181,0.33502 -0.617501,0.59122 -0.30875,0.2562 -0.76859,0.44013 -0.459841,0.17737 -1.044495,0.17737 z m 7.745035,0.0394 q -0.95253,0 -1.688274,-0.45984 -0.735745,-0.45985 -1.143033,-1.29413 -0.400718,-0.83428 -0.400718,-1.91162 0,-1.097048 0.407288,-1.957606 0.413856,-0.867128 1.129893,-1.353245 0.716038,-0.486117 1.589734,-0.486117 0.84085,0 1.47806,0.466409 0.63721,0.459841 0.99194,1.372953 0.35474,0.913111 0.35474,2.220376 h -4.795484 q 0,1.16274 0.525532,1.76053 0.532101,0.59122 1.537182,0.59122 0.65691,0 1.21529,-0.21678 0.55838,-0.21678 0.8737,-0.46641 l 0.55181,0.86713 q -0.24963,0.21678 -0.67006,0.42042 -0.42042,0.19708 -0.93938,0.32189 -0.5124,0.12482 -1.01822,0.12482 z m 1.66856,-4.401334 q 0,-0.597793 -0.23649,-1.057634 -0.22992,-0.45984 -0.64377,-0.709468 -0.40729,-0.256197 -0.91969,-0.256197 -0.518959,0 -0.959092,0.256197 -0.440133,0.249628 -0.702899,0.716038 -0.256197,0.45984 -0.256197,1.051064 z m 14.09741,4.401334 q -0.95253,0 -1.68827,-0.45984 -0.73575,-0.45985 -1.14303,-1.29413 -0.40072,-0.83428 -0.40072,-1.91162 0,-1.097048 0.40728,-1.957606 0.41386,-0.867128 1.1299,-1.353245 0.71604,-0.486117 1.58973,-0.486117 0.84085,0 1.47806,0.466409 0.63721,0.459841 0.99194,1.372953 0.35474,0.913111 0.35474,2.220376 h -4.79548 q 0,1.16274 0.52553,1.76053 0.5321,0.59122 1.53718,0.59122 0.65692,0 1.21529,-0.21678 0.55838,-0.21678 0.8737,-0.46641 l 0.55181,0.86713 q -0.24963,0.21678 -0.67005,0.42042 -0.42043,0.19708 -0.93939,0.32189 -0.5124,0.12482 -1.01822,0.12482 z m 1.66856,-4.401334 q 0,-0.597793 -0.23649,-1.057634 -0.22992,-0.45984 -0.64377,-0.709468 -0.40729,-0.256197 -0.91968,-0.256197 -0.51897,0 -0.9591,0.256197 -0.44013,0.249628 -0.7029,0.716038 -0.2562,0.45984 -0.2562,1.051064 z m 5.35386,0.683194 -2.18096,-3.613035 h 1.235 l 1.56346,2.680213 1.6817,-2.680213 h 1.14304 l -2.18096,3.534205 2.28606,3.69186 h -1.26127 l -1.66857,-2.79846 -1.76053,2.79846 h -1.16931 z m 9.52528,3.71814 q -0.94596,0 -1.41237,-0.43357 -0.46641,-0.43356 -0.46641,-1.24814 v -4.703508 h -1.83936 v -0.945957 h 1.83936 v -2.404309 h 1.10362 v 2.404309 h 1.99702 v 0.945957 h -1.99702 v 4.309358 q 0,0.43357 0.11167,0.66349 0.11168,0.22992 0.36787,0.32189 0.2562,0.092 0.72918,0.092 0.21021,0 0.60436,-0.0657 0.39415,-0.0723 0.72261,-0.14452 v 0.99851 q -1.13646,0.21022 -1.76053,0.21022 z m 11.73251,-5.67575 h 6.03048 v 1.248139 h -6.03048 z m 0,2.6408 h 6.03048 v 1.24814 h -6.03048 z m 16.47543,-7.777875 h 1.72112 l -0.43356,4.611543 h -0.94596 z m 2.86415,0 h 1.73426 l -0.47298,4.611543 h -0.91968 z"
       id="path4" />
    <path
       style="fill:#e61e25"
       d="m 171.0569,104.15853 q -0.55837,0 -0.88683,-0.32189 -0.32189,-0.32846 -0.32189,-0.88684 0,-0.56494 0.32189,-0.88683 0.32846,-0.32189 0.88683,-0.32189 0.56495,0 0.88684,0.32189 0.32189,0.32189 0.32189,0.88683 0,0.55838 -0.32189,0.88684 -0.32189,0.32189 -0.88684,0.32189 z m 6.42463,-0.27591 q 0,0.80144 0.35474,1.24157 0.3613,0.44013 0.99851,0.44013 0.40072,0 0.68976,-0.22992 0.29561,-0.22992 0.4467,-0.59122 0.15109,-0.3613 0.15109,-0.72918 v -6.464039 h -2.41745 v -0.880266 h 3.52107 v 7.318035 q 0,0.77516 -0.29561,1.34667 -0.29562,0.57809 -0.83429,0.88027 -0.5321,0.30875 -1.24813,0.30875 -0.72261,0 -1.28099,-0.31532 -0.55181,-0.30875 -0.86713,-0.90654 -0.30875,-0.59779 -0.30875,-1.41894 z m 2.57511,-8.658138 q -0.47298,0 -0.67005,-0.197075 -0.19708,-0.197074 -0.19708,-0.670053 0,-0.472979 0.19708,-0.670053 0.19707,-0.197075 0.67005,-0.197075 0.47298,0 0.67005,0.197075 0.19708,0.197074 0.19708,0.670053 0,0.472979 -0.19708,0.670053 -0.19707,0.197075 -0.67005,0.197075 z m 8.09978,8.828938 q -0.81458,0 -1.3204,-0.24306 -0.50583,-0.24306 -0.74889,-0.74888 -0.24305,-0.5124 -0.24305,-1.34011 v -7.265479 h -2.29921 v -0.939388 h 3.40282 v 8.007797 q 0,0.78829 0.34817,1.1496 0.35473,0.35473 0.90654,0.35473 0.35474,0 0.65692,-0.17737 0.30218,-0.18393 0.67005,-0.54523 l 0.65691,0.75545 q -0.90654,0.99194 -2.02986,0.99194 z"
       id="path5" />
    <path
       d="m 192.40666,93.188045 h 1.72111 l -0.43356,4.611543 h -0.94596 z m 2.86415,0 h 1.73425 l -0.47298,4.611543 h -0.91968 z"
       id="path6" />
    <path
       d="m 76.973476,122.7755 q -1.583165,0 -2.450293,-0.65035 -0.860559,-0.65035 -1.208724,-1.98388 -0.341595,-1.33354 -0.341595,-3.58676 0,-2.22694 0.328457,-3.58675 0.328458,-1.36639 1.143032,-2.04301 0.814575,-0.68319 2.266357,-0.68319 1.077341,0 1.721117,0.38101 0.650346,0.38101 0.939389,1.17588 0.295611,0.78829 0.295611,2.06928 v 4.80862 q 0,0.30875 0.06569,0.84085 0.06569,0.52553 0.131383,0.80143 h -1.037926 l -0.131383,-0.7226 q -0.131383,0.35473 -0.558377,0.57808 -0.420426,0.22335 -0.913112,0.22335 -0.716038,0 -1.182447,-0.50582 -0.459841,-0.51239 -0.676623,-1.34668 -0.210213,-0.83428 -0.210213,-1.83279 0,-1.53718 0.499256,-2.44372 0.505824,-0.91311 1.537181,-0.91311 0.440133,0 0.821144,0.13795 0.38101,0.13138 0.6175,0.38101 v -0.3613 q 0,-0.44671 -0.09854,-0.91312 -0.09854,-0.47298 -0.518963,-0.88683 -0.413857,-0.41386 -1.261277,-0.41386 -0.978803,0 -1.55032,0.63721 -0.564946,0.63721 -0.801436,1.86564 -0.236489,1.22186 -0.236489,3.12034 0,1.97075 0.282473,2.95612 0.289043,0.98537 1.018218,1.37295 0.729176,0.39415 2.194097,0.39415 h 2.233511 v 1.1299 z m 0.518963,-3.2583 q 0.400718,0 0.656915,-0.22335 0.256197,-0.22335 0.367872,-0.5321 0.111676,-0.30875 0.111676,-0.58466 v -2.76561 q 0,-0.59779 -0.295612,-0.91968 -0.295612,-0.32189 -0.821144,-0.32189 -0.433564,0 -0.702899,0.24963 -0.262766,0.24963 -0.38758,0.81457 -0.124813,0.55838 -0.124813,1.51748 0,1.02478 0.137952,1.63571 0.137952,0.60437 0.400718,0.86713 0.262766,0.26277 0.656915,0.26277 z m 4.28309,-6.42463 h 3.24516 v 6.25383 h 2.075851 v 0.97223 h -5.465533 v -0.97223 h 2.272926 v -5.33415 h -2.128404 z m 2.54883,-1.44521 q -0.472979,0 -0.670053,-0.19708 -0.197075,-0.19707 -0.197075,-0.67005 0,-0.47298 0.197075,-0.67005 0.197074,-0.19708 0.670053,-0.19708 0.472979,0 0.670053,0.19708 0.197075,0.19707 0.197075,0.67005 0,0.47298 -0.197075,0.67005 -0.197074,0.19708 -0.670053,0.19708 z m 6.904185,2.83787 H 89.32349 v -0.9591 h 1.905054 v -1.22186 q 0,-0.90654 0.295611,-1.4255 0.302181,-0.52554 0.840852,-0.72918 0.545239,-0.21021 1.359814,-0.21021 0.827712,0 1.405798,0.0525 v 1.02479 q -0.630639,-0.0526 -1.208724,-0.0526 -0.518963,0 -0.860559,0.092 -0.335026,0.0854 -0.532101,0.35474 -0.197074,0.26276 -0.197074,0.77516 v 1.3401 h 2.167819 v 0.9591 h -2.167819 v 5.8334 h -1.103617 z m 17.007536,5.93851 q -0.95253,0 -1.68827,-0.45984 -0.73575,-0.45984 -1.14303,-1.29412 -0.40072,-0.83428 -0.40072,-1.91162 0,-1.09705 0.40729,-1.95761 0.41385,-0.86713 1.12989,-1.35325 0.71604,-0.48611 1.58973,-0.48611 0.84086,0 1.47806,0.46641 0.63721,0.45984 0.99195,1.37295 0.35473,0.91311 0.35473,2.22037 h -4.79548 q 0,1.16274 0.52553,1.76053 0.5321,0.59123 1.53718,0.59123 0.65692,0 1.2153,-0.21679 0.55837,-0.21678 0.87369,-0.4664 l 0.55181,0.86712 q -0.24963,0.21679 -0.67005,0.42043 -0.42043,0.19707 -0.93939,0.32189 -0.51239,0.12481 -1.01822,0.12481 z m 1.66857,-4.40133 q 0,-0.59779 -0.23649,-1.05763 -0.22992,-0.45984 -0.64378,-0.70947 -0.40729,-0.2562 -0.91968,-0.2562 -0.51896,0 -0.9591,0.2562 -0.44013,0.24963 -0.7029,0.71604 -0.25619,0.45984 -0.25619,1.05106 z m 5.35386,0.68319 -2.18096,-3.61303 h 1.235 l 1.56346,2.68021 1.6817,-2.68021 h 1.14304 l -2.18096,3.5342 2.28606,3.69186 h -1.26128 l -1.66856,-2.79845 -1.76053,2.79845 h -1.16931 z m 9.52527,3.71814 q -0.94596,0 -1.41237,-0.43356 -0.46641,-0.43357 -0.46641,-1.24814 v -4.70351 h -1.83936 v -0.94596 h 1.83936 v -2.40431 h 1.10362 v 2.40431 h 1.99702 v 0.94596 h -1.99702 v 4.30936 q 0,0.43356 0.11167,0.66348 0.11168,0.22992 0.36788,0.32189 0.25619,0.092 0.72917,0.092 0.21022,0 0.60436,-0.0657 0.39415,-0.0723 0.72261,-0.14452 v 0.99851 q -1.13646,0.21021 -1.76053,0.21021 z M 136.5163,114.748 h 6.03048 v 1.24813 h -6.03048 z m 0,2.64079 h 6.03048 v 1.24814 h -6.03048 z m 7.88298,-2.64079 h 6.03048 v 1.24813 h -6.03048 z m 0,2.64079 h 6.03048 v 1.24814 h -6.03048 z m 16.47543,-7.77787 h 1.72112 l -0.43356,4.61154 h -0.94596 z m 2.86415,0 h 1.73426 l -0.47298,4.61154 h -0.91968 z"
       id="path7" />
    <path
       style="fill:#e61e25"
       d="m 171.0569,120.5814 q -0.55837,0 -0.88683,-0.32189 -0.32189,-0.32846 -0.32189,-0.88683 0,-0.56495 0.32189,-0.88684 0.32846,-0.32189 0.88683,-0.32189 0.56495,0 0.88684,0.32189 0.32189,0.32189 0.32189,0.88684 0,0.55837 -0.32189,0.88683 -0.32189,0.32189 -0.88684,0.32189 z m 7.63993,-0.18394 q -0.91969,0 -1.54375,-0.54524 -0.6175,-0.5518 -0.91969,-1.41236 -0.29561,-0.86713 -0.29561,-1.82623 0,-0.8934 0.32846,-1.72768 0.32846,-0.83428 0.9591,-1.35982 0.63063,-0.52553 1.47805,-0.52553 0.6175,0 1.16274,0.2562 0.55181,0.24963 0.86713,0.83428 v -4.1517 h 1.10362 v 8.80266 q 0,0.22992 0.007,0.53867 0.007,0.30218 0.0131,0.46641 l 0.0197,0.57151 h -1.01165 l -0.13138,-0.97223 q -0.40072,0.57809 -0.86056,0.81457 -0.45984,0.23649 -1.17587,0.23649 z m 0.2759,-0.85399 q 0.65035,0 1.04449,-0.44013 0.39415,-0.4467 0.55181,-1.09705 0.16423,-0.65034 0.16423,-1.3401 0,-0.68976 -0.1905,-1.3204 -0.19051,-0.63064 -0.6175,-1.03793 -0.427,-0.41385 -1.09705,-0.41385 -0.59779,0 -1.00508,0.42042 -0.40729,0.41386 -0.60436,1.05107 -0.19051,0.63063 -0.19051,1.27441 0,0.68319 0.21678,1.35325 0.22335,0.67005 0.66349,1.11018 0.44013,0.44013 1.0642,0.44013 z m 7.85015,0.85399 q -0.91968,0 -1.60287,-0.45327 -0.67663,-0.45984 -1.0445,-1.30069 -0.3613,-0.84085 -0.3613,-1.97731 0,-1.1299 0.36787,-1.96418 0.36787,-0.84085 1.0445,-1.28755 0.68319,-0.45327 1.60944,-0.45327 0.91968,0 1.5963,0.45327 0.67662,0.4467 1.03793,1.28755 0.3613,0.83428 0.3613,1.96418 0,1.13646 -0.36787,1.97731 -0.36131,0.84085 -1.03793,1.30069 -0.67662,0.45327 -1.60287,0.45327 z m -0.0394,-0.94595 q 0.57809,0 1.00508,-0.32846 0.427,-0.33503 0.65692,-0.95253 0.22992,-0.6175 0.22992,-1.45178 0,-0.86056 -0.22992,-1.4912 -0.22992,-0.63064 -0.65692,-0.96566 -0.42699,-0.3416 -1.00508,-0.3416 -0.5518,0 -0.96566,0.3416 -0.40729,0.34159 -0.63064,0.9788 -0.21678,0.63064 -0.21678,1.4912 0,0.83428 0.21678,1.45178 0.22335,0.61093 0.63064,0.93939 0.41386,0.32846 0.96566,0.32846 z"
       id="path8" />
    <path
       d="m 192.40666,109.61092 h 1.72111 l -0.43356,4.61154 h -0.94596 z m 2.86415,0 h 1.73425 l -0.47298,4.61154 h -0.91968 z"
       id="path9" />
  </g>
</svg>
